<?xml version="1.0" encoding="utf-8"?>
<!-- Generator: Adobe Illustrator 18.1.0, SVG Export Plug-In . SVG Version: 6.00 Build 0)  -->
<svg version="1.1" id="Layer_1" xmlns="http://www.w3.org/2000/svg" xmlns:xlink="http://www.w3.org/1999/xlink" x="0px" y="0px"
	 viewBox="0 0 300 300" enable-background="new 0 0 300 300" xml:space="preserve">
<g>
	<path fill="#00A8DE" d="M162,56.5c0.5,0.1,0.9,0.1,1.4,0.2C162.9,56.6,162.4,56.6,162,56.5z"/>
	<path fill="#00A8DE" d="M171.3,58.3c0.5,0.1,1,0.2,1.4,0.4C172.2,58.6,171.8,58.5,171.3,58.3z"/>
	<path fill="#00A8DE" d="M190.4,65.2c-0.4-0.2-0.8-0.4-1.2-0.6C189.6,64.9,190,65.1,190.4,65.2C190.4,65.2,190.4,65.2,190.4,65.2z"
		/>
	<path fill="#00A8DE" d="M152.4,94c1-1,1.9-1.9,2.9-2.9C154.2,91.8,153.1,92.9,152.4,94z"/>
	<path fill="#00A8DE" d="M167.1,57.4c0.5,0.1,0.9,0.2,1.4,0.3C168.1,57.6,167.6,57.5,167.1,57.4z"/>
	<path fill="#00A8DE" d="M157.7,56c0.3,0,0.6,0.1,0.8,0.1C158.3,56.1,158,56,157.7,56z"/>
	<path fill="#00A8DE" d="M87.5,83.6c-0.1,0.3-0.1,0.6-0.2,1c1.7,0.3,3.5,0.7,5.3,1.2C91.8,83.7,89.6,83,87.5,83.6z"/>
	<path fill="#00A8DE" d="M185.2,62.9c0.5,0.2,1,0.4,1.4,0.6C186.2,63.3,185.7,63.1,185.2,62.9z"/>
	<path fill="#00A8DE" d="M113.7,61.8c1.3-0.5,2.6-0.9,3.9-1.4C116.3,60.8,115,61.3,113.7,61.8z"/>
	<path fill="#00A8DE" d="M93.2,72.6c1.4-0.9,2.7-1.8,4.1-2.7C95.9,70.8,94.5,71.7,93.2,72.6z"/>
	<path fill="#00A8DE" d="M152.4,55.6c0.4,0,0.7,0,1.1,0.1C153.2,55.6,152.8,55.6,152.4,55.6z"/>
	<path fill="#00A8DE" d="M176.5,66.7c-4.8-0.2-4.8,2.6-7.7,3.6c-2.1,0.7-5-0.6-7.2-0.4c-2.9,0.3-2.5,0.8-4.5,1.8
		c-1.6,0.8-0.3,2.1-3.6,1.3c-0.4-0.1-0.3-2.1-0.6-2.2c-0.9-0.4-1.7-0.1-2.5-0.4c-3.9-1.4-7.2,0-10.5,2.4c-2.2,1.6-4.9,4.7-6.9,5.8
		c-2.9,1.5-7.1,0.7-10.4,0.9c-4.8,0.2-9.2-2.4-11.9,0.6c-0.4,0.5-0.7,1.1-1.1,1.7c0.3-0.7,0.7-1.3,1.1-1.7c2.6-3.7,5.2-4.6,10.1-7
		c2.6-1.3,10.3-5.3,10.9-8.1c-3.8-0.5-12.3,1.9-15.4,4.4c1.3-5.6,14.7-7.5,19.4-7.8c-1-4-15.5-1.4-18.2,0.1c-3,1.6-6.3,3-9.4,4.6
		c-0.8,0.4-0.4,1.6-1.4,2.1c-0.7,0.3-2.3,0.2-2.9,0.6c-1.3,1-2.5,0.4-2.5,2.7c0.7,0.3,1,0.7,1.6,1c-0.1,0.8,0.4,3.2,0.2,3.6
		c-0.7,2.3-2.5,2-3.8,3.6c-2.8,3.3-1.1,2.5-1.3,6.4c-0.7,0.2-1.3,0.4-2,0.4c10.4,3,22.1,8.1,34.2,14.6c0.8-3.6,2.4-6.6,5.1-4.6
		c0.4,0.3,0.6,4.4,1,7.8c1.3-1,2.9-1.6,4.7-1.6c1,0,2,0.2,2.8,0.6c0.5-0.6,1-1.1,1.5-1.6c-0.4-0.6-1-1.2-1.9-1.7
		c0-0.6,0.5-1,0.4-1.6c-1.5-0.5-1.7-1.4-2.9-2c-0.4-4,5.4-7.8,8.3-10.8c3.9-4,6.4-1.3,9.8-3.4c1.4,0.7,2.9,1.1,4.4,1.4
		c7.2-6.4,14.1-11.5,20.3-15c-1.8-2-3.2-4-2.8-5.9c0.1-0.4,0.3-0.8,0.4-1.2c0.1,0,0.2,0.1,0.3,0.1c-2.8-1-5.7-2-8.7-2.7
		c0.5,1.2,0.4,3,1,4.3C175,64.9,176.7,63.9,176.5,66.7z"/>
	<path fill="#00A8DE" d="M103.3,66.5c1.3-0.7,2.6-1.3,3.9-1.9C105.8,65.2,104.5,65.8,103.3,66.5z"/>
	<path fill="#00A8DE" d="M97.6,69.7c1.6-1,3.1-1.9,4.7-2.7C100.8,67.8,99.2,68.7,97.6,69.7z"/>
	<path fill="#00A8DE" d="M108.6,63.9c1.2-0.5,2.3-1,3.5-1.5C111,62.9,109.8,63.4,108.6,63.9z"/>
	<path fill="#00A8DE" d="M136.8,56.2c1.3-0.1,2.6-0.3,3.8-0.4C139.4,55.9,138.1,56,136.8,56.2z"/>
	<path fill="#00A8DE" d="M142.4,55.7c1.9-0.1,3.7-0.2,5.6-0.2C146.2,55.5,144.3,55.6,142.4,55.7z"/>
	<path fill="#00A8DE" d="M131.2,57c1.2-0.2,2.5-0.4,3.7-0.6C133.6,56.6,132.4,56.8,131.2,57z"/>
	<path fill="#00A8DE" d="M125,58.3c1.5-0.4,2.9-0.7,4.4-1C127.9,57.6,126.4,57.9,125,58.3z"/>
	<path fill="#00A8DE" d="M118.8,60c1.7-0.5,3.5-1,5.2-1.5C122.3,59,120.6,59.5,118.8,60z"/>
	<path fill="#00A8DE" d="M206.3,169.7c-2,1.7-4.9,1.5-6.7,2.7c-1.9,1.3-2.8,3.3-4.7,4.7c-2.1-2.4-0.8-4.9-1.8-7.8
		c-0.9-2.5-3.3-4.6-5.2-6.5c-1.1-1.1-2.4-2.4-3.8-3.7c-0.5,0.8-1,1.6-1.6,2.4c0.1,0.3,0.1,0.6,0.2,1c0.7,3.3,1.1,9.3,2.7,12.3
		c1.7,3,5.2,5,8,6c5.6,2.1,7.3-2.6,12.1-1.1c-2.1,3-1.6,9.1-5.9,10.3c1.1,6.3-6.7,9.5-10.1,13.3c-1.6,1.7-2.3,2.6-2.8,3.7
		c14.3,6,26.6,9,34.9,8.1c3.3-3.9,6.3-8,9-12.3c-1.8-8.5-9.6-21-22.5-35.1C207.4,168.5,206.8,169.2,206.3,169.7z"/>
	<path fill="#00A8DE" d="M83.6,79.5c-1.3,1.1-2.5,1.5-3.7,3.5c0,0,0,0,0,0C81.1,81,82.3,80.6,83.6,79.5z"/>
	<path fill="#00A8DE" d="M74.5,89.5C74.5,89.5,74.5,89.5,74.5,89.5c-0.7,0.8-1.4,1.6-2,2.4C73.1,91.1,73.8,90.3,74.5,89.5z"/>
	<path fill="#00A8DE" d="M125.1,191.6c-1.6-12.4-11.3-1.7-16.5-4.2c-1.3-0.6-1.3-3-2.4-3.6c-1.6-1-4-0.3-5.5-1.2
		c-0.9-0.5-1.6-1-2.1-1.5c-9.3,19.9-13.3,36.2-12.2,45.7c3.9,3.2,8.1,6.1,12.4,8.7c8.9-2.1,21.9-10.7,36.6-24.9
		c-0.5-0.5-1-1.1-1.6-1.9C130.7,204.2,135.8,188.1,125.1,191.6z"/>
	<path fill="#00A8DE" d="M103.8,143.7c1.3-1.3,2.5-2.9,4.2-4.4c4.3-3.7,5.9-2.8,9.7-2.5c0.9-1.4,1.8-2.7,2.8-4
		c0.3-0.4,0.6-0.8,0.9-1.2c-2-1.7-3.7-3.4-5.4-5.6c1.8-1.6,3.2-3.1,2.4-5.3c2.8-1.2,6.6-1,8,1.8c1.7-1.1,3.4-2.4,4.8-4.2
		c-2-1.2-3-3.4-2.4-6c1.1,0.1,3.2-0.7,3.6-0.7c-1.3-0.9-1.4-1.8-3-2.5c-0.1-0.5-0.1-1.1-0.1-1.9c-17.3-9.3-32.4-15-43.7-17
		c0,0,0,0,0,0c-4.2,0.2-8.5,0.6-12.8,3.2c-1.7,1.1-2.4,2.5-4.2,3.5c-1.1,1.6-2.2,3.2-3.2,4.8c2.4,11.6,14.8,28.4,33.1,45.9
		C100,146.3,102.4,145.1,103.8,143.7z"/>
	<path fill="#00A8DE" d="M209.7,77.7C209.7,77.7,209.7,77.7,209.7,77.7c-0.2-0.2-0.5-0.4-0.8-0.6C209.1,77.3,209.4,77.5,209.7,77.7z
		"/>
	<path fill="#00A8DE" d="M175.9,126.7c1.8-0.6,2-0.3,3.4-0.5c2.5-0.3,7.3,1.3,6.6-3c-4-0.4-7.3-7-11.3-1.9c-0.6,0-1.2,0-1.8-0.1
		c1-2.4-0.6-3.8-2.7-4.4c-1.2,2.2-1.9,6.2-1.2,9c1.3,1,2.7,2,4,3c0.3,0,0.6-0.1,0.9-0.2C174.8,128.3,175.4,126.8,175.9,126.7z"/>
	<path fill="#00A8DE" d="M202.9,72.6c-0.5-0.3-0.9-0.6-1.4-0.9C202,72,202.5,72.3,202.9,72.6z"/>
	<path fill="#00A8DE" d="M177.9,85.4c3.1,0.2,4.4,1.2,7.2,1.8c1.4-3.2,4.5-8.2,3.7-12.1c-0.2-0.8-0.6-1.6-1.3-2.4
		c-6,3.2-12.6,8.1-19.7,14.3c-0.5,4.1-4.6,8.1-8.6,8c-2.7,2.7-5.5,5.6-8.3,8.6c0.4,0.2,0.8,0.3,1.2,0.5
		C156.3,102,175.3,82.1,177.9,85.4z"/>
	<path fill="#00A8DE" d="M199.1,70.1c-0.4-0.2-0.7-0.5-1.1-0.7C198.3,69.6,198.7,69.8,199.1,70.1z"/>
	<path fill="#00A8DE" d="M206.4,75.1c-0.4-0.3-0.9-0.6-1.3-1C205.5,74.4,206,74.8,206.4,75.1z"/>
	<path fill="#00A8DE" d="M182.7,219.7c1.7,7.5-7.8,5.4-10.3,9.7c-1.9,3.3,1.5,4.6,1,7.3c-0.6,2.9-5.8,6.6-8.2,8.4
		c3.7-0.1,6.6-0.2,10.1-1.3c3.3-1.1,2.6-0.4,4.9-2.4c0.9-0.8,4-5.6,5-7.2c3.9-6.4,4-15.8,14.3-13.4c0.7,3.4-0.6,9,0.8,12.1
		c0.1,0.2,0.2,0.4,0.3,0.5c5.7-3.7,11-7.9,15.8-12.7c-8.4-0.5-19-3.3-30.9-8.2C185.3,215.4,186.1,218.4,182.7,219.7z"/>
	<path fill="#00A8DE" d="M201.7,128.1c0-0.1-0.1-0.2-0.1-0.3c-0.4,0.9-0.9,1.8-1.3,2.7C201.9,130.7,202.2,130.3,201.7,128.1z"/>
	<path fill="#00A8DE" d="M96.1,153c-17.2-16.2-29.5-32-34.3-44.4c-5.3,10.5-8.8,22.1-10,34.3c1,1.7,1.3,1.4,1.5,4.7
		c0.1,1.2-0.6,4.4,0.1,5.6c1,1.7,3.7,1.2,4.5,3.2c1,2.4-1.9,5.7-1.9,8.1c0.1,1.9,1.7,7.3,2.7,9.1c1.2,2.3,3.5,4,4.6,6.7
		c1,2.5,2.3,5.8,2.7,8.2c0.6,2.8,1.3,10.7,0.8,16.2c3.9,6.1,8.6,11.7,13.7,16.8c0.5-12.7,6.5-29.9,15.6-48.1
		C93.2,169.8,94.1,159.6,96.1,153z"/>
	<path fill="#00A8DE" d="M142.3,240.9c-2.8-6-1.3-9.5-8.7-12.6c0.5-3.3,3.3-6,4.1-9.5c0.3-1.3,0.5-2.2,0.5-3
		c-11.5,11.1-22.7,19-32.4,22.9c12.7,6.2,27.1,9.2,42.2,9.2c0,0,0,0,0,0C145.9,247,144,244.5,142.3,240.9z"/>
	<path fill="#00A8DE" d="M237.6,168.7c-1.1-1.1-2.5-3.3-3.3-5.1c-0.5-1.3,0.9-2.3,0.4-3.4c-0.5-1-2.5-2.2-3-3.3
		c-2.1-5-5.6-7.4-8.6-11.9c-5.2-1.4-6.6,4.8-11.5,4.8c-3.1,0-10.9-7.1-13.8-5.4c-0.2,0.1-0.4,0.3-0.6,0.4c0,1-0.2,1.9-0.5,2.8
		c2.6,3.4,15.6,6.1,16.7,6.5c0.2,1.6-1,5-2.5,8.2c11.2,11.9,19.7,23.5,23.5,33.4c3-6,5.4-12.3,7.2-18.9c-2-1.9-3.8-4.1-4.9-5.5
		C237.1,170.5,237,169.7,237.6,168.7z"/>
	<path fill="#00A8DE" d="M164.3,130.5c-3-0.5-4.2,1.2-3.6,4c-1.1,0.5-2.3,0.8-3.5,0.6c-0.3-0.4-1.1-1.7-1.2-1.8
		c-0.2-2.6-0.2-5.4,0.4-7.7c-1.3-1-2.4-2-3.6-3.1c0.4,5.1,2.9,20-5.9,14.4c2.4-4.8,1.1-8-2.6-10.7c-0.4-0.4-1.2,0-1.6-0.2
		c1-7.8-6.1-2.3-8.6-0.1c-0.2-0.2-0.1-0.7-0.6-1.1c-0.1,0-0.2,0.1-0.4,0.1c-2.2,2.8-4.3,5.8-6.4,8.7c1.5,2.4,4.8,2.7,7.4,1.2
		c3.3-0.4,9.5,3.4,11.4,2.4c-2.9,3,2.3,10.3,5.5,11c1.7-1.3,2.2-4.8,3.8-5.7c2-1.1,8.3,0.4,10.3,1.6c0.4-0.2,0.5-0.7,0.9-0.9
		c3.6-0.3,6.4-2.1,10.3-0.3c0.7-1.1,1.1-2.3,1.3-3.6c-1.8-1.4-3.7-2.9-5.5-4.3c-2.6,0.1-5.1,0.7-7.1,2.9
		C163.1,135.8,164.2,133.2,164.3,130.5z"/>
	<path fill="#00A8DE" d="M193.4,114c-6.5-2-2.9,5.6-1.4,8.5c0.9,1.7,1.8,3.9,3.2,5.7c1-2,1.9-3.8,2.9-5.8c-2.1-2.9-4.5-4.3-7-8.3
		H193.4z"/>
	<path fill="#00A8DE" d="M69.1,96.4c0.8-1.1,1.6-2.3,2.5-3.4C70.8,94.1,69.9,95.2,69.1,96.4z"/>
	<path fill="#00A8DE" d="M152.1,122c-1.2-1.1-2.5-2.3-3.7-3.5c-0.6-0.4-1.2-0.8-1.8-1.1C145.6,120.3,149.2,121.7,152.1,122z"/>
	<path fill="#00A8DE" d="M179.4,155.8c0.1-0.1,0.2-0.3,0.3-0.4c-1-0.7-2-1.4-3-1.9C177.9,154.6,178.8,155.3,179.4,155.8z"/>
	<path fill="#00A8DE" d="M181.9,242.9c-0.5,0.2-1,0.4-1.5,0.5C180.9,243.2,181.4,243,181.9,242.9z"/>
	<path fill="#00A8DE" d="M242.9,171.4c-0.1,0.3-0.1,0.6-0.2,1C242.7,172,242.8,171.7,242.9,171.4z"/>
	<path fill="#00A8DE" d="M186.5,241c-0.5,0.2-0.9,0.4-1.4,0.6C185.6,241.4,186,241.2,186.5,241z"/>
	<path fill="#00A8DE" d="M241.8,175.9c-0.1,0.2-0.1,0.4-0.2,0.6C241.7,176.4,241.8,176.2,241.8,175.9z"/>
	<path fill="#00A8DE" d="M199.2,234.3c-0.4,0.3-0.9,0.6-1.3,0.8C198.3,234.9,198.8,234.6,199.2,234.3z"/>
	<path fill="#00A8DE" d="M190.8,239c-0.5,0.3-1,0.5-1.5,0.7C189.8,239.5,190.3,239.2,190.8,239z"/>
	<path fill="#00A8DE" d="M244.3,161.9c0,0.2-0.1,0.5-0.1,0.7C244.2,162.4,244.3,162.2,244.3,161.9z"/>
	<path fill="#00A8DE" d="M194.6,237c-0.5,0.3-1,0.5-1.4,0.8C193.6,237.6,194.1,237.3,194.6,237z"/>
	<path fill="#00A8DE" d="M243.7,166.3c0,0.3-0.1,0.7-0.1,1C243.6,167,243.7,166.7,243.7,166.3z"/>
	<path fill="#00A8DE" d="M242.6,131.9c0.1,0.3,0.2,0.7,0.2,1C242.8,132.6,242.7,132.3,242.6,131.9z"/>
	<path fill="#00A8DE" d="M241.5,127.2c0.1,0.5,0.3,1,0.4,1.4C241.7,128.2,241.6,127.7,241.5,127.2z"/>
	<path fill="#00A8DE" d="M244.7,156.7c0,0.3,0,0.7,0,1C244.6,157.3,244.6,157,244.7,156.7z"/>
	<path fill="#00A8DE" d="M243.6,137.2c0.1,0.4,0.1,0.7,0.2,1.1C243.7,138,243.7,137.6,243.6,137.2z"/>
	<path fill="#00A8DE" d="M244.6,146.3c0,0.5,0.1,0.9,0.1,1.4C244.6,147.2,244.6,146.8,244.6,146.3z"/>
	<path fill="#00A8DE" d="M244.2,141.7c0.1,0.5,0.1,1,0.1,1.5C244.3,142.7,244.2,142.2,244.2,141.7z"/>
	<path fill="#00A8DE" d="M54.4,176.6c-0.1-0.3-0.1-0.6-0.2-0.8C54.3,176,54.3,176.3,54.4,176.6z"/>
	<path fill="#00A8DE" d="M61.3,195c-0.2-0.5-0.5-0.9-0.7-1.4C60.8,194,61,194.5,61.3,195z"/>
	<path fill="#00A8DE" d="M63.2,198.7c-0.2-0.4-0.5-0.9-0.7-1.3C62.7,197.8,63,198.3,63.2,198.7z"/>
	<path fill="#00A8DE" d="M59.2,190.6c-0.1-0.3-0.3-0.6-0.4-0.9C59,190,59.1,190.3,59.2,190.6z"/>
	<path fill="#00A8DE" d="M240.3,123c0.1,0.5,0.3,0.9,0.4,1.4C240.5,123.9,240.4,123.4,240.3,123z"/>
	<path fill="#00A8DE" d="M65.9,203.3c-0.3-0.4-0.5-0.8-0.8-1.3C65.4,202.5,65.6,202.9,65.9,203.3z"/>
	<path fill="#00A8DE" d="M55.9,181.8c-0.1-0.4-0.3-0.8-0.4-1.3C55.7,181,55.8,181.4,55.9,181.8z"/>
	<path fill="#00A8DE" d="M57.4,186c-0.2-0.4-0.3-0.9-0.5-1.3C57.1,185.1,57.2,185.6,57.4,186z"/>
	<path fill="#00A8DE" d="M153.8,248.8c-0.4,0-0.9,0.1-1.3,0.1C152.9,248.8,153.4,248.8,153.8,248.8z"/>
	<path fill="#00A8DE" d="M168.3,246.8c-0.5,0.1-1,0.2-1.4,0.3C167.3,247,167.8,246.9,168.3,246.8z"/>
	<path fill="#00A8DE" d="M172.5,245.8c-0.4,0.1-0.7,0.2-1.1,0.3C171.7,246,172.1,245.9,172.5,245.8z"/>
	<path fill="#00A8DE" d="M177.7,244.3c-0.5,0.2-0.9,0.3-1.4,0.4C176.8,244.6,177.3,244.4,177.7,244.3z"/>
	<path fill="#00A8DE" d="M163.6,247.7c-0.3,0.1-0.7,0.1-1,0.2C162.9,247.8,163.2,247.8,163.6,247.7z"/>
	<path fill="#00A8DE" d="M53.4,172.4c-0.1-0.4-0.2-0.9-0.3-1.3C53.2,171.5,53.3,171.9,53.4,172.4z"/>
	<path fill="#00A8DE" d="M158.3,248.4c-0.4,0-0.8,0.1-1.2,0.1C157.5,248.5,157.9,248.5,158.3,248.4z"/>
	<path fill="#00A8DE" d="M236.8,113.7c0.2,0.4,0.4,0.8,0.6,1.3C237.1,114.5,237,114.1,236.8,113.7z"/>
	<path fill="#00A8DE" d="M215.8,83.3c0.4,0.4,0.8,0.8,1.2,1.2C216.6,84,216.2,83.6,215.8,83.3z"/>
	<path fill="#00A8DE" d="M52.6,167.6c0-0.3-0.1-0.6-0.1-0.9C52.4,167,52.5,167.3,52.6,167.6z"/>
	<path fill="#00A8DE" d="M218.9,86.4c0.3,0.4,0.7,0.7,1,1.1C219.6,87.1,219.2,86.8,218.9,86.4z"/>
	<path fill="#00A8DE" d="M222.6,90.6c0.2,0.3,0.4,0.6,0.7,0.8C223,91.1,222.8,90.8,222.6,90.6z"/>
	<path fill="#00A8DE" d="M230.3,101.4c0.2,0.3,0.4,0.6,0.6,0.9C230.7,101.9,230.5,101.6,230.3,101.4z"/>
	<path fill="#00A8DE" d="M227.7,97.4c0.3,0.4,0.6,0.9,0.9,1.3C228.3,98.2,228,97.8,227.7,97.4z"/>
	<path fill="#00A8DE" d="M88.8,75.8c1.1-0.8,2.2-1.6,3.3-2.4C91,74.2,89.9,75,88.8,75.8z"/>
	<path fill="#00A8DE" d="M84.4,79.5c1.1-0.9,2.2-1.9,3.3-2.8C86.5,77.6,85.4,78.5,84.4,79.5z"/>
	<path fill="#00A8DE" d="M51.5,158c0-0.4-0.1-0.8-0.1-1.3C51.4,157.1,51.5,157.5,51.5,158z"/>
	<path fill="#00A8DE" d="M51.4,147.5c0-0.9,0.1-1.8,0.2-2.6C51.6,145.7,51.5,146.6,51.4,147.5z"/>
	<path fill="#00A8DE" d="M51.9,162.5c0-0.4-0.1-0.7-0.1-1.1C51.8,161.7,51.8,162.1,51.9,162.5z"/>
	<path fill="#00A8DE" d="M225.2,93.9c0.3,0.4,0.6,0.8,0.9,1.3C225.8,94.7,225.5,94.3,225.2,93.9z"/>
	<path fill="#00A8DE" d="M234.9,109.6c0.2,0.5,0.5,0.9,0.7,1.4C235.3,110.6,235.1,110.1,234.9,109.6z"/>
	<path fill="#00A8DE" d="M232.9,105.8c0.2,0.4,0.4,0.8,0.6,1.2C233.3,106.6,233.1,106.2,232.9,105.8z"/>
	<path fill="#00A8DE" d="M238.9,118.9c0.1,0.2,0.1,0.4,0.2,0.6C239,119.3,238.9,119.1,238.9,118.9z"/>
	<path fill="#41BDE6" d="M66,188.5c-0.5-2.4-1.7-5.7-2.7-8.2c-1.1-2.7-3.3-4.4-4.6-6.7c-1-1.9-2.7-7.2-2.7-9.1
		c-0.1-2.5,2.8-5.7,1.9-8.1c-0.8-2-3.5-1.6-4.5-3.2c-0.7-1.1,0-4.3-0.1-5.6c-0.2-3.3-0.5-3-1.5-4.7c0,0,0,0,0,0
		c-0.1,0.6-0.1,1.3-0.1,1.9c-0.1,0.9-0.1,1.8-0.2,2.6c-0.1,1.6-0.1,3.2-0.1,4.8c0,1.5,0,3,0.1,4.5c0,0.4,0,0.8,0.1,1.3
		c0.1,1.1,0.2,2.3,0.3,3.4c0,0.4,0.1,0.7,0.1,1.1c0.2,1.4,0.3,2.9,0.5,4.3c0,0.3,0.1,0.6,0.1,0.9c0.2,1.1,0.4,2.3,0.6,3.4
		c0.1,0.4,0.2,0.9,0.3,1.3c0.2,1.1,0.5,2.3,0.8,3.4c0.1,0.3,0.1,0.6,0.2,0.8c0.3,1.3,0.7,2.7,1.1,4c0.1,0.4,0.3,0.8,0.4,1.3
		c0.3,1,0.6,1.9,1,2.8c0.2,0.4,0.3,0.9,0.5,1.3c0.5,1.2,0.9,2.5,1.5,3.7c0.1,0.3,0.3,0.6,0.4,0.9c0.4,1,0.9,2,1.3,3
		c0.2,0.5,0.5,0.9,0.7,1.4c0.4,0.8,0.8,1.6,1.3,2.5c0.2,0.4,0.4,0.9,0.7,1.3c0.6,1.1,1.3,2.2,1.9,3.3c0.3,0.4,0.5,0.8,0.8,1.3
		c0.3,0.5,0.6,1,0.9,1.4c0,0,0,0,0,0C67.3,199.2,66.6,191.3,66,188.5z"/>
	<path fill="#41BDE6" d="M71.6,93c-0.9,1.1-1.7,2.2-2.5,3.4c-0.2,0.2-0.3,0.4-0.5,0.7c0,0,0,0,0,0c1.8-1,2.4-2.4,4.2-3.5
		c4.2-2.7,8.5-3,12.8-3.2c0,0,0,0,0,0c-4.3-0.8-8.1-1-11.1-0.7c-0.7,0.8-1.4,1.6-2,2.4C72.2,92.3,71.9,92.6,71.6,93z"/>
	<path fill="#41BDE6" d="M87.3,84.6c0-0.3,0.1-0.6,0.2-1c2.1-0.6,4.3,0.1,5.1,2.1c1,0.3,2.1,0.6,3.2,0.9c0.7-0.1,1.3-0.2,2-0.4
		c0.2-3.9-1.5-3.1,1.3-6.4c1.3-1.5,3.1-1.3,3.8-3.6c0.1-0.4-0.4-2.8-0.2-3.6c-0.6-0.3-0.8-0.7-1.6-1c0-2.2,1.2-1.7,2.5-2.7
		c0.5-0.4,2.1-0.2,2.9-0.6c1-0.5,0.6-1.7,1.4-2.1c3.1-1.6,6.4-3,9.4-4.6c2.7-1.5,17.2-4.1,18.2-0.1c-4.8,0.3-18.1,2.1-19.4,7.8
		c3.1-2.5,11.6-5,15.4-4.4c-0.6,2.8-8.3,6.8-10.9,8.1c-4.9,2.4-7.5,3.3-10.1,7c2.7-3.1,7.1-0.4,11.9-0.6c3.3-0.2,7.5,0.6,10.4-0.9
		c2.1-1.1,4.7-4.2,6.9-5.8c3.3-2.4,6.6-3.8,10.5-2.4c0.9,0.3,1.7,0,2.5,0.4c0.3,0.1,0.3,2.1,0.6,2.2c3.3,0.8,2-0.5,3.6-1.3
		c2-1,1.6-1.5,4.5-1.8c2.3-0.2,5.2,1.1,7.2,0.4c2.9-1,2.9-3.8,7.7-3.6c0.2-2.7-1.5-1.7-2.4-3.6c-0.6-1.2-0.5-3-1-4.3c0,0,0,0,0,0
		c-0.1,0-0.2-0.1-0.3-0.1c-0.5-0.1-1-0.2-1.4-0.4c-0.9-0.2-1.8-0.4-2.8-0.6c-0.5-0.1-0.9-0.2-1.4-0.3c-1.2-0.2-2.5-0.5-3.8-0.7
		c-0.5-0.1-0.9-0.1-1.4-0.2c-1.1-0.2-2.2-0.3-3.4-0.4c-0.3,0-0.6-0.1-0.8-0.1c-1.4-0.1-2.8-0.2-4.2-0.3c-0.4,0-0.7,0-1.1-0.1
		c-1.5-0.1-2.9-0.1-4.4-0.1c-1.9,0-3.8,0.1-5.6,0.2c-0.6,0-1.2,0.1-1.8,0.1c-1.3,0.1-2.6,0.2-3.8,0.4c-0.7,0.1-1.3,0.2-1.9,0.2
		c-1.2,0.2-2.5,0.4-3.7,0.6c-0.6,0.1-1.2,0.2-1.8,0.3c-1.5,0.3-3,0.6-4.4,1c-0.3,0.1-0.6,0.1-0.9,0.2c-1.8,0.5-3.5,1-5.2,1.5
		c-0.4,0.1-0.8,0.3-1.2,0.4c-1.3,0.4-2.6,0.9-3.9,1.4c-0.5,0.2-1.1,0.4-1.6,0.6c-1.2,0.5-2.4,1-3.5,1.5c-0.5,0.2-1,0.4-1.5,0.7
		c-1.3,0.6-2.6,1.3-3.9,1.9c-0.3,0.2-0.6,0.3-0.9,0.5c-1.6,0.9-3.2,1.8-4.7,2.7c-0.1,0.1-0.2,0.1-0.3,0.2c-1.4,0.9-2.8,1.8-4.1,2.7
		c-0.4,0.3-0.7,0.5-1.1,0.8c-1.1,0.8-2.2,1.6-3.3,2.4c-0.4,0.3-0.8,0.6-1.1,0.9c-1.1,0.9-2.2,1.8-3.3,2.8c-0.3,0.2-0.5,0.4-0.8,0.7
		c-1.3,1.1-2.5,2.3-3.7,3.5C82.2,83.8,84.7,84.1,87.3,84.6z"/>
	<path fill="#41BDE6" d="M110.5,80.1c-0.4,0.4-0.8,1-1.1,1.7C109.8,81.2,110.1,80.6,110.5,80.1z"/>
	<path fill="#41BDE6" d="M129.3,109.1c1.6,0.7,1.7,1.7,3,2.5c-0.5,0-2.5,0.8-3.6,0.7c-0.7,2.5,0.4,4.7,2.4,6c-1.4,1.7-3,3.1-4.8,4.2
		c-1.4-2.8-5.1-2.9-8-1.8c0.7,2.2-0.7,3.7-2.4,5.3c1.6,2.2,3.3,3.9,5.4,5.6c4.2-6,8.6-11.7,12.9-17.1c-0.7-1.2-1.1-2.5-1.1-4
		c0-0.4,0.1-0.8,0.1-1.2c-1.3-0.7-2.6-1.5-3.9-2.2C129.3,107.9,129.3,108.6,129.3,109.1z"/>
	<path fill="#41BDE6" d="M148.4,118.5c1.2,1.2,2.5,2.3,3.7,3.5c-2.9-0.3-6.6-1.7-5.5-4.6c-0.4-0.2-0.8-0.5-1.2-0.7
		c-1.3,1-2.9,1.6-4.7,1.6c-0.7,0-1.4-0.1-2.1-0.3c-1.9,2.3-3.7,4.7-5.6,7.1c0.1,0,0.2-0.1,0.4-0.1c0.4,0.3,0.4,0.9,0.6,1.1
		c2.5-2.1,9.6-7.6,8.6,0.1c0.5,0.2,1.3-0.2,1.6,0.2c3.7,2.7,5,5.9,2.6,10.7c8.9,5.6,6.4-9.3,5.9-14.4c1.2,1,2.3,2.1,3.6,3.1
		c-0.6,2.2-0.6,5.1-0.4,7.7c0.1,0.2,0.9,1.4,1.2,1.8c1.2,0.1,2.4-0.1,3.5-0.6c-0.6-2.9,0.7-4.6,3.6-4c-0.2,2.7-1.2,5.3,0.7,7.5
		c2-2.2,4.5-2.8,7.1-2.9c-2.5-1.9-5-3.8-7.6-5.7C159.1,125.5,153.7,121.9,148.4,118.5z"/>
	<path fill="#41BDE6" d="M208.9,77.1c-0.8-0.7-1.7-1.3-2.5-2c-0.4-0.3-0.9-0.6-1.3-1c-0.7-0.5-1.4-1-2.2-1.5
		c-0.5-0.3-0.9-0.6-1.4-0.9c-0.8-0.5-1.6-1.1-2.5-1.6c-0.4-0.2-0.7-0.5-1.1-0.7c-0.3-0.2-0.5-0.3-0.8-0.5c-2.9,0.7-6.2,2-9.7,3.9
		c0.6,0.8,1.1,1.6,1.3,2.4c0.9,3.9-2.2,8.8-3.7,12.1c-2.9-0.6-4.1-1.6-7.2-1.8c-2.6-3.3-21.5,16.6-25.7,18.8
		c-0.4-0.2-0.8-0.4-1.2-0.5c-1,1.1-2.1,2.3-3.1,3.5c0.5,1,0.8,2.1,0.8,3.3c0,0.5-0.1,0.9-0.1,1.3c6.6,4.1,13.1,8.5,19.4,13.1
		c0.4,0.3,0.8,0.6,1.2,0.9c-0.7-2.8,0-6.8,1.2-9c2.1,0.7,3.7,2,2.7,4.4c0.6,0.1,1.2,0.1,1.8,0.1c4-5.2,7.3,1.5,11.3,1.9
		c0.7,4.3-4.2,2.7-6.6,3c-1.4,0.2-1.7-0.1-3.4,0.5c-0.5,0.2-1.2,1.7-2,1.9c-0.3,0.1-0.6,0.2-0.9,0.2c4.1,3.1,8.2,6.3,12.2,9.6
		c1.2-0.9,2.7-1.4,4.4-1.4c0.3,0,0.6,0.1,0.9,0.1c1.7-3.1,3.3-6.1,4.7-9.1c-1.4-1.7-2.3-3.9-3.2-5.6c-1.5-2.9-5.2-10.5,1.4-8.5h-2.3
		c2.5,4,4.9,5.4,7,8.3c8.5-18.4,12.9-34.5,11.6-44.5C209.4,77.6,209.1,77.3,208.9,77.1z"/>
	<path fill="#41BDE6" d="M199.7,189.9c4.3-1.2,3.7-7.3,5.9-10.3c-4.8-1.5-6.5,3.2-12.1,1.1c-2.9-1.1-6.4-3-8-6
		c-1.6-3-2-8.9-2.7-12.3c-0.1-0.4-0.1-0.7-0.2-1c-2.2,3.4-4.5,6.8-6.9,10.2c-4.3,6.2-8.9,12.3-13.7,18.1c0.6,1.1,1,2.4,1,3.8
		c0,0.5-0.1,1.1-0.2,1.6c8.3,4.7,16.4,8.7,23.9,11.8c0.5-1.1,1.3-2,2.8-3.7C193,199.4,200.8,196.3,199.7,189.9z"/>
	<path fill="#41BDE6" d="M167.8,87.1c-2.8,2.5-5.7,5.2-8.6,8C163.2,95.2,167.2,91.2,167.8,87.1z"/>
	<path fill="#41BDE6" d="M201.6,127.9c0,0.1,0.1,0.2,0.1,0.3c0.6,2.2,0.2,2.6-1.4,2.5c-1.5,3-3.1,6.1-4.8,9.2c1.2,1.4,1.9,3.1,1.9,5
		c0,0,0,0,0,0.1c0.2-0.1,0.4-0.3,0.6-0.4c2.9-1.8,10.6,5.3,13.8,5.4c4.9,0,6.2-6.2,11.5-4.8c3,4.5,6.4,6.9,8.6,11.9
		c0.5,1.1,2.5,2.3,3,3.3c0.5,1.1-0.9,2.1-0.4,3.4c0.8,1.8,2.2,4,3.3,5.1c-0.6,1-0.5,1.8-0.9,2.7c1.2,1.4,2.9,3.5,4.9,5.5
		c0,0,0,0,0,0c0-0.1,0-0.2,0.1-0.3c0.1-0.2,0.1-0.4,0.2-0.6c0.3-1.2,0.6-2.4,0.8-3.6c0.1-0.3,0.1-0.6,0.2-1c0.3-1.3,0.5-2.7,0.7-4
		c0.1-0.3,0.1-0.7,0.1-1c0.2-1.2,0.3-2.5,0.5-3.7c0-0.2,0.1-0.5,0.1-0.7c0.1-1.4,0.2-2.8,0.3-4.3c0-0.3,0-0.7,0-1
		c0.1-1.5,0.1-2.9,0.1-4.4c0-1.5,0-3-0.1-4.5c0-0.5-0.1-0.9-0.1-1.4c-0.1-1.1-0.1-2.1-0.2-3.2c0-0.5-0.1-1-0.1-1.5
		c-0.1-1.1-0.3-2.2-0.4-3.3c-0.1-0.4-0.1-0.7-0.2-1.1c-0.2-1.4-0.5-2.9-0.8-4.3c-0.1-0.3-0.1-0.7-0.2-1c-0.2-1.1-0.5-2.2-0.8-3.3
		c-0.1-0.5-0.2-1-0.4-1.4c-0.3-1-0.5-1.9-0.8-2.9c-0.1-0.5-0.3-0.9-0.4-1.4c-0.4-1.2-0.8-2.4-1.2-3.5c-0.1-0.2-0.1-0.4-0.2-0.6
		c-0.5-1.3-1-2.6-1.6-3.9c-0.2-0.4-0.4-0.8-0.6-1.3c-0.4-0.9-0.8-1.8-1.2-2.7c-0.2-0.5-0.4-0.9-0.7-1.4c-0.4-0.9-0.9-1.8-1.3-2.6
		c-0.2-0.4-0.4-0.8-0.6-1.2c-0.7-1.2-1.3-2.4-2.1-3.6c-0.2-0.3-0.4-0.6-0.6-0.9c-0.6-0.9-1.1-1.8-1.7-2.7c-0.3-0.4-0.6-0.9-0.9-1.3
		c-0.5-0.8-1.1-1.5-1.6-2.2c-0.3-0.4-0.6-0.8-0.9-1.3c-0.6-0.8-1.3-1.7-2-2.5c-0.2-0.3-0.4-0.6-0.7-0.8c-0.9-1-1.8-2.1-2.7-3.1
		c-0.3-0.4-0.7-0.7-1-1.1c-0.6-0.7-1.3-1.4-1.9-2c-0.4-0.4-0.8-0.8-1.2-1.2c-0.1-0.1-0.3-0.3-0.4-0.4
		C215,94.4,210,110.2,201.6,127.9z"/>
	<path fill="#41BDE6" d="M180.9,62.6c-0.5,1.9,1,3.9,2.8,5.9c2.3-1.3,4.6-2.4,6.7-3.3c-0.4-0.2-0.8-0.4-1.2-0.6
		c-0.8-0.4-1.7-0.8-2.5-1.1c-0.5-0.2-1-0.4-1.4-0.6c-1.2-0.5-2.4-1-3.5-1.4c-0.1,0-0.2-0.1-0.3-0.1C181.2,61.8,181,62.2,180.9,62.6z
		"/>
	<path fill="#41BDE6" d="M166.1,143.4c-0.4,0.2-0.5,0.7-0.9,0.9c-2.1-1.2-8.3-2.7-10.3-1.6c-1.6,0.9-2.1,4.4-3.8,5.7
		c-3.3-0.8-8.4-8-5.5-11c-1.9,1-8.1-2.7-11.4-2.4c-2.6,1.5-5.9,1.2-7.4-1.2c-0.6,0.8-1.1,1.6-1.7,2.4c-4.4,6.2-8.4,12.3-12,18.3
		c1,1.3,1.6,2.9,1.6,4.7c0,0.9-0.2,1.7-0.4,2.5c5.5,4.5,11.3,9.1,17.3,13.4c6.3,4.5,12.6,8.8,18.8,12.7c1.3-1.1,3.1-1.8,5-1.8
		c0.8,0,1.6,0.2,2.3,0.4c4.5-5.5,9-11.5,13.4-17.9c2.9-4.2,5.7-8.4,8.4-12.6c-0.7-0.5-1.5-1.2-2.7-2.3c0.9,0.5,1.9,1.2,3,1.9
		c1.3-2,2.5-4,3.7-6c-1-1.3-1.6-2.9-1.6-4.6c0-0.6,0.1-1.2,0.2-1.7c-1.4-1.2-2.9-2.4-4.4-3.6c-0.2,1.2-0.6,2.4-1.3,3.6
		C172.5,141.3,169.7,143.1,166.1,143.4z"/>
	<path fill="#41BDE6" d="M189.6,152.5c-0.5,0-0.9-0.1-1.4-0.1c-1.3,2.2-2.7,4.4-4.1,6.6c1.4,1.3,2.7,2.6,3.8,3.7
		c1.9,1.9,4.3,4,5.2,6.5c1,2.9-0.3,5.5,1.8,7.8c1.8-1.4,2.7-3.4,4.7-4.7c1.8-1.2,4.7-1,6.7-2.7c0.5-0.5,1.1-1.2,1.7-2.1
		c-4.6-5-9.8-10.3-15.7-15.6C191.5,152.3,190.6,152.5,189.6,152.5z"/>
	<path fill="#41BDE6" d="M213.4,154.2c-1-0.4-14.1-3.2-16.7-6.5c-0.1,0.2-0.2,0.4-0.3,0.6c5.2,4.7,10,9.4,14.4,14.2
		C212.5,159.1,213.6,155.7,213.4,154.2z"/>
	<path fill="#41BDE6" d="M147.6,193.6c0-0.3,0.1-0.6,0.1-0.9c-6.4-4-12.9-8.4-19.4-13.1c-6.2-4.5-12.1-9.1-17.7-13.7
		c-1.1,0.6-2.3,1-3.7,1c-0.3,0-0.7-0.1-1-0.1c-2.7,5-5.1,9.8-7.3,14.4c0.5,0.5,1.2,0.9,2.1,1.5c1.5,0.9,3.9,0.2,5.5,1.2
		c1.1,0.7,1.1,3,2.4,3.6c5.2,2.5,14.8-8.2,16.5,4.2c10.7-3.4,5.6,12.7,8.9,17.2c0.6,0.8,1.1,1.4,1.6,1.9c4.2-4.1,8.5-8.6,13-13.6
		C147.9,196,147.6,194.8,147.6,193.6z"/>
	<path fill="#41BDE6" d="M96.1,173.4c1.5-3.1,3.2-6.2,4.9-9.4c-1.1-1.3-1.8-3-1.8-4.9c0-0.9,0.2-1.8,0.5-2.7
		c-1.2-1.1-2.5-2.3-3.6-3.4C94.1,159.6,93.2,169.8,96.1,173.4z"/>
	<path fill="#41BDE6" d="M130,101.2c2,1.1,4,2.2,6,3.3c0,0,0.1-0.1,0.1-0.1c-0.5-3.4-0.7-7.5-1-7.8C132.5,94.6,130.8,97.6,130,101.2
		z"/>
	<path fill="#41BDE6" d="M199.5,220.9c-10.3-2.4-10.4,7-14.3,13.4c-1,1.6-4.1,6.4-5,7.2c-2.2,2-1.6,1.3-4.9,2.4
		c-3.5,1.1-6.4,1.2-10.1,1.3c2.4-1.8,7.6-5.5,8.2-8.4c0.5-2.7-2.9-3.9-1-7.3c2.5-4.4,12-2.3,10.3-9.7c3.4-1.2,2.6-4.2,2.8-7.2
		c-8.1-3.3-16.7-7.6-25.7-12.6c-1.3,0.9-2.8,1.4-4.5,1.4c-0.9,0-1.8-0.2-2.6-0.5c-4.8,5.4-9.6,10.5-14.4,15.1c0,0.8-0.2,1.8-0.5,3
		c-0.9,3.5-3.6,6.3-4.1,9.6c7.4,3.1,5.9,6.8,8.7,12.8c1.7,3.6,3.6,5.6,5.8,7.6c0,0,0,0,0,0c1.5,0,2.9,0,4.4-0.1c0.4,0,0.9,0,1.3-0.1
		c1.1-0.1,2.2-0.1,3.3-0.3c0.4,0,0.8-0.1,1.2-0.1c1.4-0.1,2.8-0.3,4.2-0.5c0.3-0.1,0.7-0.1,1-0.2c1.1-0.2,2.2-0.4,3.3-0.6
		c0.5-0.1,1-0.2,1.4-0.3c1-0.2,2.1-0.5,3.1-0.7c0.4-0.1,0.7-0.2,1.1-0.3c1.3-0.3,2.6-0.7,3.9-1.1c0.5-0.1,0.9-0.3,1.4-0.4
		c0.9-0.3,1.8-0.6,2.7-0.9c0.5-0.2,1-0.4,1.5-0.5c1.1-0.4,2.1-0.8,3.2-1.3c0.5-0.2,0.9-0.4,1.4-0.6c0.9-0.4,1.9-0.8,2.8-1.3
		c0.5-0.2,1-0.5,1.5-0.7c0.8-0.4,1.5-0.8,2.3-1.2c0.5-0.3,1-0.5,1.4-0.8c1.1-0.6,2.2-1.2,3.3-1.9c0.5-0.3,0.9-0.6,1.3-0.8
		c0.5-0.3,0.9-0.6,1.4-0.9c0,0,0,0,0,0c-0.1-0.1-0.2-0.3-0.3-0.5C198.9,229.9,200.2,224.2,199.5,220.9z"/>
	<path fill="#41BDE6" d="M149.1,85.5c-2.9,3-8.7,6.9-8.3,10.8c1.2,0.7,1.4,1.5,2.9,2c0.1,0.6-0.4,1-0.4,1.6c0.9,0.6,1.5,1.2,1.9,1.7
		c2.4-2.7,4.9-5.3,7.3-7.7c0.7-1.1,1.8-2.1,2.9-2.9c2.7-2.7,5.4-5.2,8-7.6c-1.5-0.3-3-0.7-4.4-1.4C155.5,84.2,153,81.5,149.1,85.5z"
		/>
	<path fill="#41BDE6" d="M108,139.4c-1.7,1.4-2.9,3.1-4.2,4.4c-1.4,1.3-3.8,2.6-5.1,3.9c1.6,1.5,3.2,3,4.8,4.5
		c1-0.5,2.2-0.9,3.5-0.9c0.5,0,0.9,0.1,1.3,0.1c3-4.9,6.1-9.8,9.4-14.6C113.9,136.6,112.3,135.7,108,139.4z"/>
	<path fill="#00A8DE" d="M256,153c-0.3,57-48.7,106.9-108.3,106.9c-46.2,0-85.6-29.3-101.2-70c16.1,46.4,60.2,80.4,112,80.4
		c65.3,0,118.2-53.3,118.5-117.3H256z"/>
	<path fill="#00A8DE" d="M148.1,46.9c21.9,0,42.3,6.3,59.4,17.6c0.9,0.6,1.8,1.1,2.7,1.7c17.6,12.3,31.3,29.7,39.1,50
		c-16.1-46.4-60.2-79.4-112-79.4C72,36.7,19.1,88,18.8,155h21C40.1,94,88.5,46.9,148.1,46.9z"/>
</g>
</svg>
